<?xml version="1.0" encoding="UTF-8" standalone="no"?>
<svg
   xmlns:dc="http://purl.org/dc/elements/1.1/"
   xmlns:cc="http://creativecommons.org/ns#"
   xmlns:rdf="http://www.w3.org/1999/02/22-rdf-syntax-ns#"
   xmlns:svg="http://www.w3.org/2000/svg"
   xmlns="http://www.w3.org/2000/svg"
   xmlns:sodipodi="http://sodipodi.sourceforge.net/DTD/sodipodi-0.dtd"
   xmlns:inkscape="http://www.inkscape.org/namespaces/inkscape"
   viewBox="0 0 193.36099 50.8005"
   version="1.1"
   id="svg3737"
   sodipodi:docname="iksdagen-logo.svg"
   width="193.36099"
   height="50.800499"
   inkscape:version="0.92.4 (5da689c313, 2019-01-14)">
  <metadata
     id="metadata3743">
    <rdf:RDF>
      <cc:Work
         rdf:about="">
        <dc:format>image/svg+xml</dc:format>
        <dc:type
           rdf:resource="http://purl.org/dc/dcmitype/StillImage" />
        <dc:title></dc:title>
      </cc:Work>
    </rdf:RDF>
  </metadata>
  <defs
     id="defs3741" />
  <sodipodi:namedview
     pagecolor="#ffffff"
     bordercolor="#666666"
     borderopacity="1"
     objecttolerance="10"
     gridtolerance="10"
     guidetolerance="10"
     inkscape:pageopacity="0"
     inkscape:pageshadow="2"
     inkscape:window-width="1920"
     inkscape:window-height="1001"
     id="namedview3739"
     showgrid="false"
     fit-margin-top="0"
     fit-margin-left="0"
     fit-margin-right="0"
     fit-margin-bottom="0"
     inkscape:zoom="4.8879077"
     inkscape:cx="114.56845"
     inkscape:cy="25.401"
     inkscape:window-x="-9"
     inkscape:window-y="-9"
     inkscape:window-maximized="1"
     inkscape:current-layer="oppna-data-logo" />
  <g
     id="Page-1"
     style="fill:none;fill-rule:evenodd"
     transform="translate(0,-5e-4)">
    <g
       id="oppna-data-logo"
       style="fill:#000000;fill-rule:nonzero">
      <path
         d="m 142,22.122 h -14.305 v -6.26 L 126.397,1.148 c 1.208,-0.816 2.837,-0.594 3.783,0.516 0.946,1.11 0.906,2.754 -0.092,3.818 1.154,0.04 2.17,0.768 2.58,1.848 0.41,1.08 0.132,2.3 -0.705,3.094 -0.837,0.796 -2.07,1.01 -3.126,0.547 v 0.423 c 0,1.583 1.283,2.867 2.866,2.867 1.583,0 2.867,-1.282 2.868,-2.865 h 1.07 c 0,1.582 1.282,2.866 2.865,2.866 1.583,0 2.866,-1.283 2.866,-2.865 v -0.262 h 0.003 c -1.13,0.646 -2.544,0.525 -3.55,-0.304 -1.003,-0.83 -1.39,-2.195 -0.97,-3.428 0.42,-1.233 1.56,-2.077 2.862,-2.12 -1.167,-1.244 -1.126,-3.192 0.092,-4.385 1.218,-1.193 3.167,-1.194 4.386,0 1.218,1.192 1.26,3.14 0.093,4.384 1.302,0.045 2.44,0.89 2.86,2.123 0.42,1.233 0.033,2.597 -0.972,3.426 -1.005,0.828 -2.418,0.95 -3.55,0.303 h 0.003 l -0.002,0.262 c 0,1.582 1.284,2.866 2.866,2.866 1.584,0 2.867,-1.283 2.867,-2.865 h 1.07 c 0,1.024 0.547,1.97 1.434,2.48 0.888,0.513 1.98,0.513 2.867,0 0.887,-0.512 1.433,-1.458 1.432,-2.482 v -0.422 c -1.056,0.465 -2.29,0.25 -3.126,-0.545 -0.837,-0.796 -1.115,-2.015 -0.706,-3.095 0.41,-1.08 1.427,-1.808 2.58,-1.848 -0.5,-0.528 -0.778,-1.23 -0.775,-1.957 0,-1.06 0.585,-2.032 1.52,-2.53 0.935,-0.498 2.07,-0.44 2.948,0.153 l -1.297,14.713 v 6.262 H 142 Z m 35.758,0 h -14.304 v -6.26 L 162.156,1.148 c 1.21,-0.816 2.838,-0.594 3.784,0.516 0.946,1.11 0.906,2.754 -0.092,3.818 1.154,0.04 2.17,0.768 2.58,1.848 0.41,1.08 0.132,2.3 -0.705,3.094 -0.837,0.796 -2.07,1.01 -3.127,0.547 v 0.423 c 0,1.583 1.283,2.866 2.866,2.867 1.583,0 2.867,-1.282 2.868,-2.865 h 1.07 c 0,1.582 1.283,2.865 2.865,2.865 1.583,0 2.866,-1.283 2.866,-2.865 v -0.262 h 0.002 c -1.13,0.646 -2.544,0.525 -3.548,-0.304 -1.005,-0.83 -1.39,-2.195 -0.97,-3.428 0.42,-1.233 1.558,-2.077 2.86,-2.12 -1.167,-1.244 -1.127,-3.193 0.092,-4.386 1.218,-1.194 3.167,-1.194 4.386,0 1.22,1.192 1.26,3.14 0.093,4.385 1.302,0.045 2.44,0.89 2.86,2.123 0.42,1.233 0.033,2.597 -0.972,3.426 -1.005,0.828 -2.418,0.95 -3.55,0.303 h 0.003 v 0.262 c 0,1.582 1.283,2.865 2.865,2.865 1.584,0 2.867,-1.283 2.867,-2.865 h 1.07 c 0,1.583 1.284,2.865 2.867,2.865 1.583,0 2.866,-1.284 2.865,-2.867 v -0.422 c -1.058,0.465 -2.29,0.25 -3.127,-0.546 -0.836,-0.795 -1.115,-2.015 -0.705,-3.094 0.41,-1.08 1.426,-1.808 2.58,-1.848 -0.5,-0.53 -0.778,-1.23 -0.776,-1.957 0,-1.06 0.585,-2.032 1.52,-2.53 0.936,-0.498 2.07,-0.44 2.948,0.153 l -1.298,14.713 v 6.262 h -14.304 z m -17.873,27.883 h -15.02 V 43.43 l -1.363,-15.448 c 1.27,-0.857 2.98,-0.624 3.973,0.542 0.993,1.165 0.952,2.89 -0.096,4.008 1.21,0.043 2.277,0.807 2.707,1.94 0.43,1.134 0.138,2.414 -0.74,3.25 -0.88,0.834 -2.172,1.06 -3.282,0.574 v 0.442 c 0,1.075 0.574,2.07 1.505,2.607 0.93,0.538 2.078,0.538 3.01,0 0.93,-0.536 1.504,-1.53 1.505,-2.605 h 1.122 c 0,1.662 1.348,3.01 3.01,3.01 1.662,0 3.01,-1.348 3.01,-3.01 l -0.002,-0.274 h 0.002 c -1.188,0.678 -2.67,0.55 -3.726,-0.32 -1.053,-0.87 -1.46,-2.304 -1.018,-3.598 0.442,-1.295 1.638,-2.18 3.005,-2.227 -1.226,-1.304 -1.184,-3.35 0.096,-4.603 1.28,-1.254 3.326,-1.254 4.606,0 1.278,1.252 1.322,3.298 0.096,4.604 1.367,0.047 2.563,0.934 3.003,2.23 0.44,1.294 0.033,2.726 -1.022,3.597 -1.055,0.87 -2.538,0.997 -3.726,0.32 h 0.002 v 0.273 c 0,1.075 0.573,2.07 1.504,2.606 0.93,0.538 2.078,0.538 3.01,0 0.93,-0.537 1.504,-1.53 1.504,-2.606 h 1.122 c 0,1.662 1.348,3.01 3.01,3.01 1.663,-0.002 3.01,-1.35 3.01,-3.012 v -0.442 c -1.11,0.488 -2.404,0.26 -3.283,-0.574 -0.877,-0.835 -1.17,-2.116 -0.74,-3.25 0.43,-1.133 1.5,-1.898 2.71,-1.94 -0.525,-0.554 -0.817,-1.29 -0.814,-2.055 0,-1.112 0.613,-2.134 1.595,-2.656 0.984,-0.522 2.174,-0.46 3.096,0.162 l -1.363,15.45 v 6.573 H 159.885 Z M 37.977,50.373 c -25.318,0.284666 -12.659,0.142333 0,0 z M 39.35,36.577 c 0,-1.228 0.186,-3.176 -1.175,-3.683 v -0.08 h 5.07 v 0.08 c -1.334,0.507 -1.174,2.482 -1.174,3.683 v 10.06 c 0,1.2 -0.16,3.15 1.176,3.656 v 0.08 h -5.07 v -0.08 c 1.334,-0.48 1.174,-2.455 1.174,-3.656 v -10.06 z m 8.83,-0.027 c 0,-1.2 0.16,-3.15 -1.2,-3.656 v -0.08 h 5.123 v 0.08 c -1.36,0.48 -1.2,2.455 -1.2,3.656 v 10.06 c 0,1.228 -0.16,3.176 1.2,3.683 v 0.08 H 46.98 v -0.08 c 1.36,-0.507 1.2,-2.482 1.2,-3.682 z"
         id="path3731"
         inkscape:connector-curvature="0"
         sodipodi:nodetypes="ccccscsccssccsscccscsccsccccsccccccccccscccccccccscsccscccsscccsccccscccssccscccccccccccccccccccccsccccscccccccccccccscccccsccccccccccccccccccssccccsccsccccssccccss" />
      <path
         d="m 54.745,36.603 c 0.88,-1.254 2.482,-2.908 0.694,-3.71 v -0.08 h 4.802 v 0.028 l -6.138,7.873 5.39,7.072 c 0.847,1.085 1.946,1.947 3.203,2.508 v 0.08 h -2.51 c -1.12,0.058 -2.215,-0.358 -3.014,-1.147 l -5.924,-7.98 3.495,-4.643 z M 74.34,35.99 c -1.13,-1.078 -2.63,-1.68 -4.19,-1.682 -1.522,0 -3.443,0.588 -3.443,2.43 0,3.655 9.18,3.6 9.18,8.538 0,2.856 -2.99,5.524 -7.152,5.524 -1.627,0.017 -3.244,-0.254 -4.776,-0.8 l -0.775,-3.336 c 1.63,1.395 3.698,2.178 5.844,2.215 1.52,0 3.815,-0.908 3.815,-2.776 0,-4.164 -9.18,-3.416 -9.18,-9.074 0,-3.362 3.443,-4.643 6.698,-4.643 1.347,-0.005 2.688,0.193 3.976,0.587 v 3.015 z m 26.648,7.792 -1.388,3.762 c -0.56,1.495 -0.746,2.27 0.534,2.75 v 0.08 h -4.91 v -0.08 c 1.548,-0.775 2.002,-2.27 2.59,-3.79 l 4.456,-11.128 c 0.373,-0.96 0.88,-2.082 -0.4,-2.482 v -0.08 h 4.215 l 5.55,13.69 c 0.615,1.52 1.095,3.015 2.616,3.79 v 0.08 h -5.47 v -0.08 c 1.308,-0.588 1.095,-0.882 0.374,-2.75 l -1.44,-3.762 h -6.726 z m 3.137,-8.7 -2.643,6.725 h 5.257 l -2.615,-6.725 z m 25.828,0.828 h -0.08 c -1.094,-1.228 -3.122,-1.602 -4.75,-1.602 -4.163,0 -7.338,2.722 -7.338,7.02 -0.01,2.02 0.792,3.958 2.228,5.38 1.436,1.42 3.384,2.203 5.404,2.17 1.254,0.005 2.502,-0.166 3.71,-0.506 V 44.53 c 0,-1.23 -0.028,-2.536 -1.23,-3.016 v -0.08 h 4.085 v 0.08 c -0.115,0.37 -0.16,0.76 -0.134,1.147 v 6.14 c -0.037,0.404 0.01,0.812 0.134,1.2 -2.097,0.464 -4.232,0.732 -6.378,0.8 -6.832,0 -10.862,-3.736 -10.862,-9.1 0,-5.737 4.564,-9.313 11.022,-9.313 1.408,0.004 2.812,0.156 4.19,0.454 v 3.07 z M 11.154,8.127 c -1.128,-1.078 -2.63,-1.68 -4.19,-1.68 -1.52,0 -3.442,0.586 -3.442,2.427 0,3.656 9.18,3.602 9.18,8.54 0,2.854 -2.988,5.523 -7.152,5.523 -1.626,0.017 -3.244,-0.254 -4.776,-0.8 L 0,18.8 c 1.632,1.396 3.698,2.18 5.844,2.216 1.52,0 3.816,-0.907 3.816,-2.776 0,-4.162 -9.18,-3.415 -9.18,-9.072 0,-3.363 3.443,-4.644 6.698,-4.644 1.348,-0.005 2.688,0.193 3.976,0.587 V 8.128 Z M 25.527,9.78 C 26.247,7.886 27.155,5.698 25.501,5.03 V 4.95 h 3.977 L 22.433,23.31 C 20.565,22.084 19.951,21.87 19.177,19.762 L 15.147,8.847 C 14.641,7.487 14.24,5.939 13.067,5.031 v -0.08 h 3.895 l -0.026,0.32 c 0.14,0.854 0.383,1.687 0.72,2.483 l 4.244,11.61 3.63,-9.582 z m 9.637,10.488 3.39,0.32 c 1.79,0.165 3.57,-0.403 4.936,-1.574 h 0.08 l -1.2,3.496 H 31.24 v -0.08 c 1.362,-0.48 1.202,-2.455 1.202,-3.656 V 8.714 c 0,-1.228 0.16,-3.176 -1.2,-3.683 v -0.08 h 8.54 c 0.42,0.056 0.85,0.01 1.253,-0.132 h 0.08 V 7.94 h -0.08 c -0.826,-0.828 -1.99,-1.223 -3.15,-1.068 -0.91,-0.02 -1.82,0.043 -2.72,0.187 v 4.963 h 3.175 c 0.398,0.033 0.8,-0.02 1.174,-0.16 h 0.08 v 2.828 h -0.08 c -0.427,-0.772 -1.548,-0.746 -2.375,-0.746 h -1.976 v 6.324 z M 51.47,4.95 c 3.577,0 5.525,1.87 5.525,4.297 0,2.35 -2.055,4.19 -4.243,4.697 l 3.843,4.83 c 1.24,1.46 2.7,2.72 4.323,3.736 h -2.455 c -1.192,0.113 -2.36,-0.39 -3.096,-1.334 l -3.255,-4.03 -2.455,-3.762 c 2.134,-0.32 4.616,-1.308 4.616,-3.816 C 54.251,8.703 53.863,7.888 53.208,7.324 52.552,6.76 51.688,6.499 50.831,6.606 50.223,6.636 49.616,6.709 49.017,6.819 v 11.954 c 0,1.228 -0.16,3.176 1.2,3.656 v 0.08 H 45.12 v -0.08 c 1.36,-0.48 1.174,-2.455 1.174,-3.656 V 8.714 c 0,-1.228 0.187,-3.176 -1.174,-3.683 v -0.08 h 6.35 z m 10.745,3.764 c 0,-1.228 0.187,-3.176 -1.174,-3.683 v -0.08 h 5.07 v 0.08 c -1.333,0.508 -1.173,2.483 -1.173,3.684 v 10.06 c 0,1.2 -0.16,3.15 1.174,3.656 v 0.08 h -5.07 v -0.08 c 1.335,-0.48 1.175,-2.455 1.175,-3.656 V 8.714 Z m 31.181,11.554 3.39,0.32 c 1.79,0.165 3.57,-0.403 4.936,-1.574 h 0.08 l -1.2,3.496 H 89.474 v -0.08 c 1.36,-0.48 1.2,-2.455 1.2,-3.656 V 8.714 c 0,-1.228 0.16,-3.176 -1.2,-3.683 v -0.08 h 8.54 c 0.42,0.056 0.85,0.01 1.253,-0.132 h 0.08 V 7.94 h -0.08 c -0.825,-0.828 -1.99,-1.223 -3.15,-1.068 -0.91,-0.02 -1.82,0.043 -2.72,0.187 v 4.963 h 3.175 c 0.398,0.033 0.8,-0.02 1.174,-0.16 h 0.08 v 2.828 h -0.08 c -0.427,-0.772 -1.548,-0.746 -2.375,-0.746 h -1.974 v 6.324 z M 114,8.127 c -1.13,-1.078 -2.63,-1.68 -4.19,-1.68 -1.522,0 -3.443,0.586 -3.443,2.427 0,3.656 9.18,3.602 9.18,8.54 0,2.854 -2.99,5.523 -7.152,5.523 -1.627,0.017 -3.244,-0.254 -4.777,-0.8 l -0.773,-3.336 c 1.63,1.396 3.697,2.18 5.843,2.216 1.52,0 3.817,-0.907 3.817,-2.776 0,-4.162 -9.18,-3.415 -9.18,-9.072 0,-3.363 3.442,-4.644 6.698,-4.644 1.347,-0.005 2.688,0.193 3.976,0.587 V 8.129 Z M 79.873,36.503 c 0,-1.225 0.186,-3.17 -1.172,-3.57 v -0.078 h 6.526 c 6.072,0 9.853,3.302 9.853,8.6 0,5.248 -4.022,8.923 -9.988,8.923 h -6.39 v -0.08 c 1.33,-0.906 1.17,-2.184 1.17,-3.755 v -10.04 z m 2.716,11.77 c 0.64,0.13 1.29,0.193 1.943,0.187 3.968,0 7.51,-2.077 7.51,-6.684 0,-4.66 -2.61,-7.004 -7.057,-7.004 -0.808,0.005 -1.612,0.104 -2.397,0.293 v 13.21 z M 84.16,8.065 H 84.08 C 82.99,6.84 80.965,6.467 79.34,6.467 c -4.154,0 -7.323,2.716 -7.323,7.003 -0.01,2.017 0.79,3.952 2.223,5.37 1.433,1.418 3.377,2.2 5.393,2.167 1.25,0.004 2.497,-0.166 3.702,-0.506 v -3.834 c 0,-1.225 -0.027,-2.53 -1.225,-3.01 v -0.08 h 4.074 v 0.08 c -0.114,0.37 -0.16,0.76 -0.133,1.146 v 6.125 c -0.036,0.405 0.01,0.812 0.134,1.2 -2.092,0.463 -4.223,0.73 -6.365,0.798 -6.818,0 -10.84,-3.73 -10.84,-9.082 0,-5.725 4.554,-9.294 11,-9.294 1.405,0.004 2.806,0.155 4.18,0.452 z"
         id="path3733"
         inkscape:connector-curvature="0" />
    </g>
  </g>
</svg>
